<?xml version="1.0" encoding="UTF-8"?><svg id="a" xmlns="http://www.w3.org/2000/svg" viewBox="0 0 646.62 1071.15"><defs><style>.b{fill:#6c6c6c;}.c{fill:#fff;}.d{fill:#6d6d6d;}</style></defs><path d="M162.68,269.02c-7-25.5-13.46-49.11-19.98-72.7-4.12-14.89-8.37-29.73-12.5-44.61-5.81-20.96,1-30.19,22.53-30.24,47.11-.09,94.23-.29,141.34,.12,9.33,.08,12.12-2.7,11.9-11.97-.58-25.19-.2-50.4-.2-76.48-18.36,0-36.22,.05-54.07-.02-13.91-.05-21.04-5.73-21.07-16.55-.03-10.82,7.12-16.54,21.02-16.55,48.17-.04,96.34-.04,144.51,0,13.39,.01,21.47,6.33,21.42,16.48-.05,9.94-8.47,16.53-21.58,16.59-18.16,.09-36.32,.02-54.74,.02,0,26.78,.36,52.37-.19,77.94-.19,8.89,3.46,10.54,11.23,10.5,46.76-.24,93.52-.13,140.29-.13,2.81,0,5.64-.15,8.44,.07,14.73,1.17,21.88,11.14,17.94,25.47-10.13,36.9-20.45,73.74-30.66,110.62-.92,3.31-1.54,6.71-2.61,11.43,5.09,.26,9.14,.64,13.19,.64,39.38,.04,78.76,0,118.13,.02,3.86,0,7.77-.03,11.57,.5,14.71,2.04,20.73,10.81,16.93,25.22-13.07,49.55-26.31,99.05-39.51,148.57-9.4,35.27-18.85,70.54-28.26,105.81-4.22,15.82-8.67,19.5-25.07,19.58-28.13,.15-56.25,.05-84.38,.06-13.5,0-13.85,.31-13.85,13.3-.01,140.26,.07,280.52-.12,420.78-.02,16.77-1.32,33.56-2.33,50.32-.67,11.14-8.13,17.24-20.93,17.27-37.97,.09-75.94,.03-113.92,.03-32.7,0-65.4,.03-98.09,0-18.19-.02-23.53-5.22-23.58-22.98-.48-154.27-.95-308.55-1.41-462.82-.05-15.83,0-15.85-16.29-15.86-27.07-.02-54.15,.04-81.22-.03-19.08-.05-23.91-3.7-28.84-22.16C45.86,465.56,24.05,383.83,2.32,302.09c-6.45-24.27,.05-32.38,25.55-32.4,40.43-.03,80.87-.02,121.3-.07,3.78,0,7.56-.32,13.51-.59Zm65.98,298.96v469.29h188.92v-469.29H228.66ZM39.6,305.8c.8,3.81,1.29,6.9,2.1,9.91,18.61,69.15,37.41,138.26,55.7,207.49,2.18,8.27,5.39,10.95,14.12,10.93,141.68-.31,283.36-.28,425.05-.06,7.95,.01,11.5-1.91,13.64-10.18,16.28-62.87,33.19-125.58,49.87-188.35,2.57-9.67,4.95-19.4,7.58-29.75H39.6Zm127.54-147.92c9.98,35.57,19.87,69.58,28.89,103.82,2.13,8.07,5.47,10.38,13.56,10.34,76.29-.3,152.58-.28,228.87-.05,7.42,.02,11.18-1.68,13.24-9.5,8.47-32.25,17.71-64.29,26.61-96.43,.69-2.48,.85-5.11,1.35-8.19H167.14Z"/><path class="b" d="M228.66,567.98h188.92v469.29H228.66v-469.29Z"/><path class="c" d="M39.6,305.8H607.66c-2.63,10.35-5.01,20.07-7.58,29.75-16.68,62.77-33.59,125.48-49.87,188.35-2.14,8.27-5.69,10.19-13.64,10.18-141.68-.22-283.36-.25-425.05,.06-8.73,.02-11.94-2.67-14.12-10.93-18.29-69.24-37.09-138.34-55.7-207.49-.81-3.01-1.3-6.1-2.1-9.91Zm176.72,175.32c14.76,0,29.53,.22,44.28-.07,11.06-.22,17.74-5.89,17.9-16.54,.45-29.86,.44-59.73,.02-89.59-.16-10.85-6.66-16.77-17.59-16.87-29.17-.27-58.34-.29-87.51-.03-12.59,.11-18.43,6.31-18.51,19.19-.17,28.46-.19,56.92,.01,85.38,.09,12.07,6.12,18.18,18.17,18.45,14.4,.33,28.82,.08,43.23,.08Zm275.85-61.06c0-14.41,.18-28.82-.06-43.22-.21-12.64-6.23-18.77-18.88-18.86-28.47-.21-56.93-.22-85.4-.01-13.35,.1-19.38,6.06-19.49,19.42-.24,28.11-.22,56.22,0,84.33,.1,13.25,6.17,19.28,19.52,19.38,28.47,.21,56.93,.2,85.4-.01,12.68-.1,18.66-6.22,18.85-18.85,.22-14.05,.05-28.11,.05-42.17Z"/><path class="b" d="M167.14,157.88H479.64c-.49,3.08-.66,5.7-1.35,8.19-8.89,32.14-18.13,64.18-26.61,96.43-2.05,7.82-5.82,9.52-13.24,9.5-76.29-.23-152.58-.25-228.87,.05-8.09,.03-11.44-2.27-13.56-10.34-9.02-34.24-18.9-68.25-28.89-103.82Z"/><path d="M216.31,481.12c-14.41,0-28.82,.25-43.23-.08-12.05-.27-18.08-6.38-18.17-18.45-.2-28.46-.19-56.92-.01-85.38,.08-12.88,5.92-19.08,18.51-19.19,29.17-.25,58.34-.23,87.51,.03,10.93,.1,17.43,6.02,17.59,16.87,.43,29.86,.44,59.73-.02,89.59-.16,10.65-6.84,16.32-17.9,16.54-14.75,.29-29.52,.07-44.28,.07Zm-27.18-89.34v55.62h55.69v-55.62h-55.69Z"/><path d="M492.17,420.06c0,14.06,.17,28.11-.05,42.17-.19,12.63-6.17,18.76-18.85,18.85-28.47,.22-56.93,.22-85.4,.01-13.35-.1-19.42-6.12-19.52-19.38-.22-28.11-.23-56.22,0-84.33,.11-13.35,6.14-19.32,19.49-19.42,28.47-.21,56.93-.2,85.4,.01,12.65,.09,18.67,6.22,18.88,18.86,.24,14.4,.06,28.81,.06,43.22Zm-34.24,27.32v-55.71h-55.8v55.71h55.8Z"/><path class="d" d="M189.14,391.78h55.69v55.62h-55.69v-55.62Z"/><path class="d" d="M457.93,447.38h-55.8v-55.71h55.8v55.71Z"/></svg>